<?xml version="1.0" encoding="UTF-8" standalone="no"?>
<!-- Created with Vectornator (http://vectornator.io/) -->

<svg
   height="555.27948"
   stroke-miterlimit="10"
   style="clip-rule:evenodd;fill-rule:nonzero;stroke-linecap:round;stroke-linejoin:round"
   version="1.1"
   viewBox="0 0 510.41199 555.2795"
   width="510.41199"
   xml:space="preserve"
   id="svg14"
   sodipodi:docname="Logo_cb_rose.svg"
   inkscape:export-filename="/home/varoquan/Projects/research/grants/2023-ANR-SECRETS/website/assets/img/avatar-icon.png"
   inkscape:export-xdpi="180"
   inkscape:export-ydpi="180"
   inkscape:version="1.1.2 (0a00cf5339, 2022-02-04)"
   xmlns:inkscape="http://www.inkscape.org/namespaces/inkscape"
   xmlns:sodipodi="http://sodipodi.sourceforge.net/DTD/sodipodi-0.dtd"
   xmlns="http://www.w3.org/2000/svg"
   xmlns:svg="http://www.w3.org/2000/svg"
   xmlns:vectornator="http://vectornator.io"><sodipodi:namedview
   id="namedview16"
   pagecolor="#ffffff"
   bordercolor="#666666"
   borderopacity="1.0"
   inkscape:pageshadow="2"
   inkscape:pageopacity="0.0"
   inkscape:pagecheckerboard="0"
   showgrid="false"
   inkscape:zoom="1.4663643"
   inkscape:cx="-49.78299"
   inkscape:cy="273.80645"
   inkscape:window-width="3770"
   inkscape:window-height="2089"
   inkscape:window-x="70"
   inkscape:window-y="34"
   inkscape:window-maximized="1"
   inkscape:current-layer="svg14"
   fit-margin-top="0"
   fit-margin-left="0"
   fit-margin-right="0"
   fit-margin-bottom="0" />
<defs
   id="defs2" />
<g
   id="Calque-2"
   vectornator:layerName="Calque 2"
   transform="translate(-177.138,-23.9812)">
<path
   d="m 432.344,24.0312 c -18.165,1e-4 -36.328,3.9983 -50.188,12 L 227.375,125.406 c -27.719,16.004 -50.187,54.9 -50.187,86.906 v 178.719 c 0,8.082 1.443,16.611 4.031,25.094 7.202,23.606 23.38,46.759 42.5,59.406 -2.538,-9.74 -4,-19.44 -4,-28.719 V 359.75 c 0,-43.759 30.728,-96.964 68.625,-118.844 l 75.375,-43.531 c 37.897,-21.88 99.353,-21.88 137.25,0 l 75.375,43.531 c 37.897,21.88 68.625,75.085 68.625,118.844 v 87.062 c 0,9.24 -1.452,18.896 -3.969,28.594 25.966,-17.208 46.5,-53.825 46.5,-84.375 V 212.312 c 0,-32.006 -22.469,-70.902 -50.188,-86.906 L 482.531,36.0312 c -13.859,-8.0017 -32.022,-12 -50.187,-12 z"
   fill="#370316"
   fill-rule="nonzero"
   opacity="1"
   stroke="#154c2b"
   stroke-linecap="butt"
   stroke-linejoin="round"
   stroke-width="0.1"
   id="path4" />
<path
   d="m 432.344,180.969 c -24.839,0 -49.677,5.466 -68.625,16.406 l -75.375,43.531 c -37.897,21.88 -68.625,75.085 -68.625,118.844 v 87.062 c 0,4.64 0.38,9.386 1.062,14.188 0.683,4.802 1.669,9.661 2.938,14.531 1.22,0.808 2.412,1.72 3.656,2.438 l 1.531,0.875 c 11.857,-30.562 34.018,-59.355 59.438,-74.032 l 75.375,-43.5 c 37.897,-21.879 99.353,-21.879 137.25,0 l 75.375,43.5 c 25.42,14.677 47.58,43.47 59.437,74.032 l 1.531,-0.875 c 1.263,-0.729 2.449,-1.742 3.688,-2.563 2.517,-9.698 3.969,-19.354 3.969,-28.594 V 359.75 c 0,-43.759 -30.728,-96.964 -68.625,-118.844 l -75.375,-43.531 c -18.949,-10.94 -43.787,-16.406 -68.625,-16.406 z"
   fill="#7d193f"
   fill-rule="nonzero"
   opacity="1"
   stroke="#31773e"
   stroke-linecap="butt"
   stroke-linejoin="round"
   stroke-width="0.1"
   id="path6" />
<path
   d="m 432.344,344.906 c -12.418,0 -24.837,1.367 -36.52,4.101 -11.684,2.734 -22.631,6.836 -32.105,12.305 l -37.688,21.75 -37.687,21.75 c -12.71,7.339 -24.605,18.206 -34.805,31.059 -10.2,12.853 -18.704,27.692 -24.633,42.973 l 76.625,44.234 76.625,44.234 c 11.645,6.724 26.305,10.581 41.45,11.615 15.145,1.033 30.775,-0.758 44.363,-5.333 2.584,-0.87 5.117,-1.801 7.558,-2.834 2.441,-1.034 4.79,-2.169 7.004,-3.448 l 76.625,-44.234 76.625,-44.234 c -5.928,-15.281 -14.433,-30.12 -24.632,-42.973 -10.2,-12.853 -22.095,-23.72 -34.805,-31.059 l -37.688,-21.75 -37.687,-21.75 c -9.474,-5.469 -20.422,-9.571 -32.105,-12.305 -11.684,-2.734 -24.103,-4.101 -36.52,-4.101 z"
   fill="#d26e93"
   fill-rule="nonzero"
   opacity="1"
   stroke="#4ebc62"
   stroke-linecap="butt"
   stroke-linejoin="round"
   stroke-width="0.1"
   id="path8" />
</g>
<g
   id="Calque-1"
   vectornator:layerName="Calque 1"
   transform="translate(-177.138,-23.9812)">
<path
   d="m 430.094,40.0625 c -12.526,0 -22.688,10.1304 -22.688,22.6563 0,10.1076 6.676,18.5684 15.813,21.5 L 422.844,180 l -18.813,-30.219 -55.5,0.063 -29.281,-14.156 c 0.138,-1.013 0.281,-2.012 0.281,-3.063 0,-12.526 -10.161,-22.656 -22.687,-22.656 -12.526,0 -22.688,10.13 -22.688,22.656 0,12.526 10.162,22.687 22.688,22.687 6.566,0 12.45,-2.819 16.594,-7.281 l 31.124,15.219 51.75,0.688 26.157,40.437 -0.688,305.937 0.344,0.063 c -9.107,2.941 -15.75,11.382 -15.75,21.469 0,12.526 10.162,22.687 22.687,22.687 12.526,0 22.688,-10.161 22.688,-22.687 0,-10.103 -6.651,-18.542 -15.781,-21.469 l 0.187,-285.781 33.063,-36.563 75.312,-0.812 28.688,-30.313 c 3.088,1.575 6.515,2.563 10.219,2.563 12.525,0 22.687,-10.162 22.687,-22.688 0,-12.526 -10.162,-22.656 -22.687,-22.656 -12.526,0 -22.688,10.13 -22.688,22.656 0,3.862 1.046,7.441 2.75,10.625 l -25.469,26.406 -22.781,-0.187 24.469,-51.125 c 6.186,-0.089 11.187,-5.074 11.187,-11.281 0,-6.263 -5.081,-11.344 -11.344,-11.344 -6.262,0 -11.343,5.081 -11.343,11.344 0,1.987 0.663,3.754 1.562,5.375 L 519.5,138.875 479.531,119.719 c 0.043,-0.4 0.25,-0.745 0.25,-1.157 0,-6.262 -5.081,-11.343 -11.343,-11.343 -6.263,0 -11.344,5.081 -11.344,11.343 0,6.263 5.081,11.313 11.344,11.313 1.63,0 3.16,-0.352 4.562,-0.969 l 41.469,19.563 -10.219,25.031 -41.438,0.938 -26.374,29.843 0.187,-119.9372 c 9.332,-2.8139 16.156,-11.3783 16.156,-21.625 0,-12.5259 -10.162,-22.6563 -22.687,-22.6563 z m 0,12.1875 c 6.263,0 11.344,5.0808 11.344,11.3438 0,6.2629 -5.081,11.3125 -11.344,11.3124 -6.263,0 -11.344,-5.0495 -11.344,-11.3124 0,-6.263 5.081,-11.3438 11.344,-11.3438 z m -133.25,69.906 c 6.263,0 11.343,5.081 11.344,11.344 0,6.263 -5.081,11.312 -11.344,11.312 -6.263,0 -11.344,-5.049 -11.344,-11.312 0,-6.263 5.081,-11.344 11.344,-11.344 z m 286.594,4.156 c 6.262,0 11.343,5.081 11.343,11.344 0,6.263 -5.081,11.313 -11.343,11.313 -6.263,0 -11.344,-5.05 -11.344,-11.313 0,-6.263 5.081,-11.344 11.344,-11.344 z M 429.062,521.375 c 6.263,0 11.344,5.081 11.344,11.344 0,6.263 -5.081,11.312 -11.344,11.312 -6.262,0 -11.343,-5.049 -11.343,-11.312 0,-6.263 5.081,-11.344 11.343,-11.344 z m -168.781,-356.437 -36.75,26.843 c -3.872,-3.07 -8.703,-5 -14.031,-5 -12.526,0 -22.688,10.131 -22.688,22.657 0,12.525 10.162,22.687 22.688,22.687 12.526,0 22.688,-10.162 22.688,-22.687 0,-2.224 -0.435,-4.315 -1.032,-6.344 l 31.532,-22.813 57.906,18.375 14.5,20.656 -33.469,20.594 c -1.682,-0.987 -3.534,-1.687 -5.625,-1.687 -6.263,0 -11.344,5.081 -11.344,11.343 0,6.263 5.081,11.313 11.344,11.313 6.218,0 11.24,-4.987 11.312,-11.187 l 33.782,-19.876 15.5,23.157 -0.344,38.25 -112.906,-7.719 -32.656,46.156 c -2.09,-0.633 -4.266,-1.062 -6.563,-1.062 -12.526,0 -22.687,10.13 -22.687,22.656 -10e-4,12.526 10.161,22.687 22.687,22.688 12.526,-10e-4 22.688,-10.162 22.687,-22.688 10e-4,-5.137 -1.776,-9.828 -4.656,-13.625 l 27.813,-39.375 35.937,2.219 -27.718,55.719 c -0.022,-10e-4 -0.042,-10e-4 -0.063,0 -6.263,0 -11.344,5.08 -11.344,11.343 0,6.263 5.081,11.313 11.344,11.313 6.263,0 11.344,-5.05 11.344,-11.313 0,-2.501 -1.003,-4.687 -2.375,-6.562 l 7.468,-13.969 32.782,14.25 c 0.681,5.608 5.267,10 11.062,10 6.263,0 11.344,-5.05 11.344,-11.312 0,-6.263 -5.081,-11.344 -11.344,-11.344 -2.447,0 -4.583,0.931 -6.437,2.25 l -31.938,-14 17.438,-34.032 59.312,3.188 0.313,208.062 -25.282,-21.656 c 1.438,-2.978 2.313,-6.286 2.313,-9.812 0,-12.526 -10.162,-22.656 -22.687,-22.656 -12.526,0 -22.688,10.13 -22.688,22.656 0,12.526 10.162,22.687 22.688,22.687 3.976,0 7.655,-1.108 10.906,-2.906 l 48.344,41.656 -0.094,-105.156 -0.188,-190.437 -41.437,-61.563 z M 209.5,198.125 c 6.263,0 11.344,5.081 11.344,11.344 0,6.263 -5.081,11.312 -11.344,11.312 -6.263,0 -11.344,-5.049 -11.344,-11.312 0,-6.263 5.081,-11.344 11.344,-11.344 z m -5.375,141.813 c 6.263,0 11.344,5.08 11.344,11.343 0,6.263 -5.081,11.313 -11.344,11.313 -6.263,0 -11.344,-5.05 -11.344,-11.313 0,-6.263 5.081,-11.344 11.344,-11.343 z m 107.313,131.343 c 6.262,0 11.343,5.081 11.343,11.344 0,6.263 -5.081,11.312 -11.343,11.313 -6.263,0 -11.344,-5.05 -11.344,-11.313 0,-6.263 5.081,-11.344 11.344,-11.344 z m 301.843,-256.093 -67,0.187 -45.593,58.344 -0.219,268.875 L 548.375,506 c 3.722,2.672 8.258,4.281 13.187,4.281 12.527,0 22.688,-10.161 22.688,-22.687 0,-12.527 -10.161,-22.657 -22.688,-22.656 -12.526,0 -22.687,10.129 -22.687,22.656 0,2.8 0.572,5.461 1.5,7.937 l -26.687,20.094 1.124,-103.25 43.563,5.375 c 2.038,3.015 5.3,5.125 9.219,5.125 6.263,0 11.344,-5.049 11.344,-11.313 0,-6.263 -5.081,-11.343 -11.344,-11.343 -4.036,0 -7.395,2.23 -9.406,5.406 l -43.813,-5.344 0.313,-31.062 62.093,-11.094 c 3.732,7.41 11.326,12.562 20.188,12.563 12.526,-10e-4 22.656,-10.162 22.656,-22.688 0,-12.526 -10.13,-22.688 -22.656,-22.688 -10.902,0 -19.978,7.717 -22.157,17.969 l 0.157,-0.031 c -0.01,0.05 0.009,0.106 0,0.156 l -60.407,10.75 -0.406,-75.031 38.532,-50.437 h 54.062 l 33.094,44.406 c -1.896,3.31 -3.063,7.096 -3.063,11.187 0,12.527 10.161,22.688 22.688,22.688 12.526,0 22.687,-10.161 22.687,-22.688 0,-12.526 -10.161,-22.656 -22.687,-22.656 -3.527,0 -6.835,0.879 -9.813,2.313 z m 46.188,57.781 c 6.263,0 11.343,5.081 11.343,11.343 0,6.263 -5.08,11.313 -11.343,11.313 -6.263,0 -11.344,-5.05 -11.344,-11.313 0,-6.262 5.081,-11.343 11.344,-11.343 z m -62.125,64 c 6.263,0 11.343,5.081 11.344,11.343 0,6.263 -5.081,11.313 -11.344,11.313 -6.263,0 -11.344,-5.05 -11.344,-11.313 0,-6.262 5.081,-11.343 11.344,-11.343 z m -35.782,139.593 c 6.263,0 11.344,5.081 11.344,11.344 0,6.263 -5.081,11.313 -11.344,11.313 -6.262,0 -11.343,-5.05 -11.343,-11.313 0,-6.263 5.081,-11.344 11.343,-11.344 z"
   fill="#ffffff"
   fill-rule="nonzero"
   opacity="1"
   stroke="none"
   id="path11" />
</g>
</svg>
